<svg width="19" height="19" viewBox="0 0 19 19" fill="none" xmlns="http://www.w3.org/2000/svg">
<path fill-rule="evenodd" clip-rule="evenodd" d="M9.34891 11.1099L16.5187 18.2797C16.7578 18.5106 17.0779 18.6384 17.4103 18.6355C17.7426 18.6326 18.0605 18.4993 18.2954 18.2643C18.5304 18.0293 18.6637 17.7114 18.6666 17.3791C18.6695 17.0468 18.5418 16.7266 18.3109 16.4876L11.1411 9.31776L18.3109 2.14792C18.5418 1.90888 18.6695 1.58873 18.6666 1.25641C18.6637 0.924099 18.5304 0.606213 18.2954 0.371221C18.0605 0.13623 17.7426 0.00293564 17.4103 4.79121e-05C17.0779 -0.00283982 16.7578 0.12491 16.5187 0.355782L9.34891 7.52562L2.17907 0.355782C1.93896 0.130617 1.62066 0.00770254 1.29153 0.013047C0.962403 0.0183915 0.648264 0.151576 0.415586 0.384418C0.182909 0.61726 0.0499465 0.931493 0.0448349 1.26063C0.0397233 1.58976 0.162863 1.90797 0.388198 2.14792L7.55677 9.31776L0.38693 16.4876C0.265878 16.6045 0.169323 16.7444 0.102898 16.899C0.0364738 17.0536 0.00151023 17.2199 4.78543e-05 17.3882C-0.00141452 17.5565 0.0306533 17.7234 0.0943806 17.8792C0.158108 18.0349 0.252218 18.1764 0.371221 18.2954C0.490223 18.4144 0.631734 18.5086 0.787496 18.5723C0.943258 18.636 1.11015 18.6681 1.27844 18.6666C1.44673 18.6652 1.61304 18.6302 1.76767 18.5638C1.9223 18.4973 2.06216 18.4008 2.17907 18.2797L9.34891 11.1099Z" fill="#6E7C89"/>
</svg>
