<svg width="28" height="28" viewBox="0 0 28 28" fill="none" xmlns="http://www.w3.org/2000/svg">
<path d="M22.5897 15.4103C23.1865 15.4103 23.6667 14.9301 23.6667 14.3333C23.6667 13.741 23.1865 13.2564 22.5897 13.2564H15.4103V6.07692C15.4103 5.48013 14.9301 5 14.3333 5C13.741 5 13.2564 5.48013 13.2564 6.07692V13.2564H6.07692C5.48237 13.2564 5 13.741 5 14.3338C5 14.9283 5.48237 15.4103 6.07692 15.4103H13.2564L13.2564 22.5897C13.2564 23.1843 13.741 23.6667 14.3338 23.6667C14.9283 23.6667 15.4103 23.1843 15.4103 22.5897L15.4103 15.4103H22.5897Z" fill="#E6F4FF"/>
</svg>
