<svg width="40" height="40" viewBox="0 0 40 40" fill="none" xmlns="http://www.w3.org/2000/svg">
<rect width="40" height="40" rx="12" fill="#3B4650"/>
<path d="M8.45354 25.6834L8.0903 24.9018C7.23847 23.0743 6.87644 21.0712 7.03719 19.075C7.19794 17.0788 7.87637 15.1529 9.01066 13.4728C10.1449 11.7927 11.699 10.4119 13.5314 9.45597C15.3637 8.50007 17.4161 7.99955 19.5014 8H20.3942V20.5555L8.45354 25.6834Z" fill="#A9B6C3"/>
<path d="M22.1797 9.84607V21.6666L10.4968 26.6846C11.5365 28.3084 12.9919 29.6494 14.7245 30.5799C16.4571 31.5103 18.409 31.9993 20.3942 32C26.7936 32 32 27.0013 32 20.8571C32 15.2959 27.7343 10.6732 22.1797 9.84607Z" fill="#A9B6C3"/>
</svg>
