<svg width="16" height="16" viewBox="0 0 16 16" fill="none" xmlns="http://www.w3.org/2000/svg">
<path fill-rule="evenodd" clip-rule="evenodd" d="M4.20263 6.1952C4.33242 6.07021 4.50842 6 4.69193 6C4.87545 6 5.05145 6.07021 5.18123 6.1952L8.15233 9.05738L11.1234 6.1952C11.2539 6.07376 11.4288 6.00656 11.6102 6.00808C11.7917 6.00959 11.9653 6.07971 12.0936 6.20332C12.2219 6.32694 12.2947 6.49416 12.2963 6.66896C12.2978 6.84377 12.2281 7.01218 12.102 7.13793L8.64163 10.4715C8.51184 10.5965 8.33584 10.6667 8.15233 10.6667C7.96881 10.6667 7.79281 10.5965 7.66303 10.4715L4.20263 7.13793C4.07289 7.0129 4 6.84335 4 6.66656C4 6.48978 4.07289 6.32023 4.20263 6.1952Z" fill="#A9B6C3"/>
</svg>
