<svg width="24" height="24" viewBox="0 0 24 24" fill="none" xmlns="http://www.w3.org/2000/svg">
<path fill-rule="evenodd" clip-rule="evenodd" d="M14.7072 6.29309C14.8947 6.48082 15 6.73539 15 7.00083C15 7.26627 14.8947 7.52084 14.7072 7.70857L10.4139 12.006L14.7072 16.3035C14.8894 16.4923 14.9902 16.7452 14.9879 17.0077C14.9856 17.2701 14.8804 17.5212 14.695 17.7068C14.5096 17.8924 14.2588 17.9977 13.9966 18C13.7343 18.0022 13.4817 17.9013 13.2931 17.719L8.2928 12.7138C8.10532 12.5261 8 12.2715 8 12.006C8 11.7406 8.10532 11.486 8.2928 11.2983L13.2931 6.29309C13.4806 6.10543 13.735 6 14.0002 6C14.2653 6 14.5197 6.10543 14.7072 6.29309Z" fill="#E6F4FF"/>
</svg>
