<svg width="24" height="24" viewBox="0 0 24 24" fill="none" xmlns="http://www.w3.org/2000/svg">
<path fill-rule="evenodd" clip-rule="evenodd" d="M6.29309 8.2928C6.48082 8.10532 6.73539 8 7.00083 8C7.26627 8 7.52084 8.10532 7.70857 8.2928L12.006 12.5861L16.3035 8.29281C16.4923 8.11064 16.7452 8.00984 17.0077 8.01211C17.2701 8.01439 17.5212 8.11957 17.7068 8.30499C17.8924 8.49041 17.9977 8.74123 18 9.00345C18.0022 9.26566 17.9013 9.51828 17.719 9.70689L12.7138 14.7072C12.5261 14.8947 12.2715 15 12.006 15C11.7406 15 11.486 14.8947 11.2983 14.7072L6.29309 9.70689C6.10543 9.51935 6 9.26503 6 8.99985C6 8.73467 6.10543 8.48034 6.29309 8.2928Z" fill="white"/>
</svg>
