<svg width="24" height="24" viewBox="0 0 24 24" fill="none" xmlns="http://www.w3.org/2000/svg">
<path fill-rule="evenodd" clip-rule="evenodd" d="M9.2928 17.7069C9.10532 17.5192 9 17.2646 9 16.9992C9 16.7337 9.10532 16.4792 9.2928 16.2914L13.5861 11.994L9.2928 7.69648C9.11063 7.50768 9.00983 7.25482 9.01211 6.99235C9.01439 6.72988 9.11957 6.4788 9.30499 6.2932C9.49041 6.1076 9.74123 6.00232 10.0034 6.00004C10.2657 5.99776 10.5183 6.09866 10.7069 6.281L15.7072 11.2862C15.8947 11.4739 16 11.7285 16 11.994C16 12.2594 15.8947 12.514 15.7072 12.7017L10.7069 17.7069C10.5194 17.8946 10.265 18 9.99985 18C9.73467 18 9.48034 17.8946 9.2928 17.7069Z" fill="#E6F4FF"/>
</svg>
