<svg width="20" height="20" viewBox="0 0 20 20" fill="none" xmlns="http://www.w3.org/2000/svg">
<path fill-rule="evenodd" clip-rule="evenodd" d="M10.3011 2.25122C10.2509 2.18392 10.1876 2.12743 10.1151 2.08512C10.0425 2.04281 9.96223 2.01556 9.87893 2.00498C9.79563 1.9944 9.71105 2.00072 9.63024 2.02355C9.54943 2.04639 9.47405 2.08527 9.40861 2.13788C7.81143 3.41992 6.75796 5.25836 6.45944 7.28455C5.91259 6.88705 5.4329 6.40455 5.03861 5.85538C4.98513 5.78064 4.91583 5.7186 4.83564 5.6737C4.75545 5.6288 4.66634 5.60213 4.57467 5.59561C4.48299 5.58908 4.39101 5.60286 4.30526 5.63595C4.21952 5.66904 4.14213 5.72063 4.07861 5.78705C2.97804 6.93835 2.27256 8.41012 2.06436 9.98917C1.85616 11.5682 2.15606 13.1725 2.9206 14.5698C3.68515 15.967 4.87464 17.0845 6.31678 17.7605C7.75892 18.4365 9.37881 18.6359 10.9418 18.3297C12.5048 18.0235 13.9298 17.2277 15.0103 16.0575C16.0907 14.8873 16.7707 13.4036 16.9515 11.8212C17.1324 10.2388 16.8047 8.63985 16.0161 7.25607C15.2275 5.8723 14.0189 4.7755 12.5653 4.12455C11.6717 3.69002 10.8953 3.04763 10.3011 2.25122ZM12.6236 12.2212C12.6233 12.6732 12.5249 13.1198 12.3353 13.5301C12.1456 13.9405 11.8692 14.3048 11.5251 14.5979C11.181 14.891 10.7775 15.106 10.3422 15.228C9.90696 15.3501 9.45043 15.3762 9.0041 15.3047C8.55777 15.2332 8.13227 15.0656 7.75695 14.8137C7.38164 14.5618 7.06545 14.2314 6.83019 13.8455C6.59494 13.4595 6.44622 13.0271 6.39429 12.578C6.34237 12.129 6.38848 11.674 6.52944 11.2446C7.05277 11.6321 7.65444 11.9196 8.30694 12.0779C8.48451 10.9372 9.0513 9.89317 9.91111 9.12288C10.6619 9.22287 11.3509 9.59217 11.8499 10.1621C12.3488 10.732 12.6238 11.4637 12.6236 12.2212Z" fill="#6E7C89"/>
</svg>
