<svg width="40" height="40" viewBox="0 0 40 40" fill="none" xmlns="http://www.w3.org/2000/svg">
<rect width="40" height="40" rx="12" fill="#3B4650"/>
<path fill-rule="evenodd" clip-rule="evenodd" d="M26.0335 8.01431C27.3874 7.86306 28.5714 8.93009 28.5714 10.3009V12.5998H13.7143C13.3987 12.5998 13.1429 12.8572 13.1429 13.1748C13.143 13.4922 13.3988 13.7498 13.7143 13.7498H28.5714C30.4648 13.7498 31.9997 15.2947 32 17.1998V27.55C31.9996 29.455 30.4647 31 28.5714 31H11.4286C9.5353 31 8.00045 29.455 8 27.55V13.1186C8.00004 11.3607 9.31395 9.88409 11.0502 9.68992L26.0335 8.01431ZM28 20.6499C27.0532 20.6499 26.2857 21.4222 26.2857 22.3749C26.2859 23.3275 27.0533 24.0999 28 24.0999C28.9467 24.0999 29.7141 23.3275 29.7143 22.3749C29.7143 21.4222 28.9468 20.6499 28 20.6499Z" fill="#A9B6C3"/>
</svg>
