<svg width="32" height="32" viewBox="0 0 32 32" fill="none" xmlns="http://www.w3.org/2000/svg">
<rect width="32" height="32" rx="16" fill="#F66108"/>
<path d="M15.8573 16.4128C19.0441 16.4128 21.6277 14.0818 21.6277 11.2064C21.6277 8.33102 19.0441 6 15.8573 6C12.6704 6 10.0868 8.33102 10.0868 11.2064C10.0868 14.0818 12.6704 16.4128 15.8573 16.4128ZM15.8573 8.64498C17.4252 8.64498 18.6962 9.79184 18.6962 11.2064C18.6962 12.621 17.4252 13.7678 15.8573 13.7678C14.2893 13.7678 13.0185 12.621 13.0185 11.2064C13.0185 9.79184 14.2893 8.64498 15.8573 8.64498ZM22.5089 17.0481C22.183 16.4576 21.2808 15.9663 20.0816 16.8189C18.4608 17.9712 15.8572 17.9712 15.8572 17.9712C15.8572 17.9712 13.2537 17.9712 11.6328 16.8189C10.4336 15.9663 9.53124 16.4576 9.20554 17.0481C8.6376 18.0776 9.2793 18.5752 10.7274 19.4139C11.9643 20.1304 13.6638 20.3981 14.7614 20.4982L13.8452 21.3247C12.5548 22.489 11.3091 23.6129 10.4449 24.3928C9.92807 24.859 9.92807 25.6149 10.4449 26.0811L10.6008 26.2218C11.1176 26.6881 11.9552 26.688 12.472 26.2218L15.8724 23.1537C17.1628 24.3181 18.4084 25.4419 19.2728 26.2217C19.7894 26.688 20.6272 26.688 21.144 26.2217L21.2998 26.081C21.8166 25.6147 21.8165 24.859 21.2998 24.3927L16.9805 20.4955C18.0789 20.3936 19.7602 20.1245 20.9869 19.4139C22.435 18.5752 23.0768 18.0776 22.5089 17.0481Z" fill="white"/>
</svg>
