<svg width="32" height="32" viewBox="0 0 32 32" fill="none" xmlns="http://www.w3.org/2000/svg">
<path fill-rule="evenodd" clip-rule="evenodd" d="M16.0156 17.7764L23.1854 24.9462C23.4245 25.1771 23.7446 25.3049 24.0769 25.302C24.4092 25.2991 24.7271 25.1658 24.9621 24.9308C25.1971 24.6958 25.3304 24.3779 25.3333 24.0456C25.3362 23.7133 25.2084 23.3931 24.9776 23.1541L17.8077 15.9843L24.9776 8.81443C25.2084 8.57539 25.3362 8.25523 25.3333 7.92292C25.3304 7.5906 25.1971 7.27272 24.9621 7.03773C24.7271 6.80273 24.4092 6.66944 24.0769 6.66655C23.7446 6.66366 23.4245 6.79141 23.1854 7.02229L16.0156 14.1921L8.84574 7.02229C8.60562 6.79712 8.28733 6.67421 7.9582 6.67955C7.62907 6.6849 7.31493 6.81808 7.08225 7.05092C6.84958 7.28376 6.71661 7.598 6.7115 7.92713C6.70639 8.25626 6.82953 8.57447 7.05486 8.81443L14.2234 15.9843L7.0536 23.1541C6.93255 23.271 6.83599 23.4109 6.76957 23.5655C6.70314 23.7201 6.66818 23.8864 6.66671 24.0547C6.66525 24.223 6.69732 24.3899 6.76105 24.5457C6.82477 24.7014 6.91889 24.8429 7.03789 24.962C7.15689 25.081 7.2984 25.1751 7.45416 25.2388C7.60993 25.3025 7.77682 25.3346 7.94511 25.3331C8.1134 25.3317 8.27971 25.2967 8.43434 25.2303C8.58897 25.1638 8.72882 25.0673 8.84574 24.9462L16.0156 17.7764Z" fill="#6E7C89"/>
</svg>
