<svg width="32" height="32" viewBox="0 0 32 32" fill="none" xmlns="http://www.w3.org/2000/svg">
<path fill-rule="evenodd" clip-rule="evenodd" d="M16.0154 17.7764L23.1852 24.9462C23.4243 25.1771 23.7444 25.3049 24.0768 25.302C24.4091 25.2991 24.727 25.1658 24.962 24.9308C25.1969 24.6958 25.3302 24.3779 25.3331 24.0456C25.336 23.7133 25.2083 23.3931 24.9774 23.1541L17.8076 15.9843L24.9774 8.81443C25.2083 8.57539 25.336 8.25523 25.3331 7.92292C25.3302 7.5906 25.1969 7.27272 24.962 7.03773C24.727 6.80273 24.4091 6.66944 24.0768 6.66655C23.7444 6.66366 23.4243 6.79141 23.1852 7.02229L16.0154 14.1921L8.84558 7.02229C8.60546 6.79712 8.28716 6.67421 7.95804 6.67955C7.62891 6.6849 7.31477 6.81808 7.08209 7.05092C6.84941 7.28376 6.71645 7.598 6.71134 7.92713C6.70623 8.25626 6.82937 8.57447 7.0547 8.81443L14.2233 15.9843L7.05343 23.1541C6.93238 23.271 6.83583 23.4109 6.7694 23.5655C6.70298 23.7201 6.66801 23.8864 6.66655 24.0547C6.66509 24.223 6.69716 24.3899 6.76088 24.5457C6.82461 24.7014 6.91872 24.8429 7.03772 24.962C7.15673 25.081 7.29824 25.1751 7.454 25.2388C7.60976 25.3025 7.77666 25.3346 7.94494 25.3331C8.11323 25.3317 8.27954 25.2967 8.43418 25.2303C8.58881 25.1638 8.72866 25.0673 8.84558 24.9462L16.0154 17.7764Z" fill="#6E7C89"/>
</svg>
